<?xml version="1.0" encoding="UTF-8" standalone="no"?>
<!-- Created with Inkscape (http://www.inkscape.org/) -->

<svg
   xmlns:i="http://ns.adobe.com/AdobeIllustrator/10.0/"
   xmlns:osb="http://www.openswatchbook.org/uri/2009/osb"
   xmlns:dc="http://purl.org/dc/elements/1.1/"
   xmlns:cc="http://creativecommons.org/ns#"
   xmlns:rdf="http://www.w3.org/1999/02/22-rdf-syntax-ns#"
   xmlns:svg="http://www.w3.org/2000/svg"
   xmlns="http://www.w3.org/2000/svg"
   xmlns:xlink="http://www.w3.org/1999/xlink"
   xmlns:sodipodi="http://sodipodi.sourceforge.net/DTD/sodipodi-0.dtd"
   xmlns:inkscape="http://www.inkscape.org/namespaces/inkscape"
   width="2236.75"
   height="898.08301"
   id="svg2"
   version="1.1"
   inkscape:version="0.48.5 r10040"
   sodipodi:docname="heading.svg">
  <defs
     id="defs4">
    <linearGradient
       id="linearGradient5279"
       osb:paint="solid">
      <stop
         style="stop-color:#1f7310;stop-opacity:1;"
         offset="0"
         id="stop5281" />
    </linearGradient>
    <filter
       color-interpolation-filters="sRGB"
       inkscape:collect="always"
       id="filter3965">
      <feGaussianBlur
         inkscape:collect="always"
         stdDeviation="2.4743396"
         id="feGaussianBlur3967" />
    </filter>
    <filter
       color-interpolation-filters="sRGB"
       inkscape:collect="always"
       id="filter3558">
      <feGaussianBlur
         inkscape:collect="always"
         stdDeviation="0.25886071"
         id="feGaussianBlur3560" />
    </filter>
    <linearGradient
       inkscape:collect="always"
       xlink:href="#linearGradient3312"
       id="linearGradient3846"
       gradientUnits="userSpaceOnUse"
       gradientTransform="matrix(1.091261,0,0,1.091261,257.33094,56.73427)"
       x1="61.42857"
       y1="362.14285"
       x2="116.42857"
       y2="408.57144" />
    <linearGradient
       id="linearGradient3312">
      <stop
         style="stop-color:#c7f994;stop-opacity:1;"
         offset="0"
         id="stop3314" />
      <stop
         style="stop-color:#87cf3e;stop-opacity:1;"
         offset="1"
         id="stop3316" />
    </linearGradient>
    <linearGradient
       inkscape:collect="always"
       xlink:href="#linearGradient3431"
       id="linearGradient3848"
       gradientUnits="userSpaceOnUse"
       gradientTransform="translate(0,80)"
       spreadMethod="pad"
       x1="70.491508"
       y1="416.38858"
       x2="113.64215"
       y2="375.87961" />
    <linearGradient
       id="linearGradient3431">
      <stop
         id="stop3433"
         offset="0"
         style="stop-color:#3d3d3d;stop-opacity:1;" />
      <stop
         id="stop3435"
         offset="1"
         style="stop-color:#000000;stop-opacity:0.11400651;" />
    </linearGradient>
    <filter
       color-interpolation-filters="sRGB"
       inkscape:collect="always"
       id="filter3291">
      <feGaussianBlur
         inkscape:collect="always"
         stdDeviation="0.400625"
         id="feGaussianBlur3293" />
    </filter>
    <filter
       color-interpolation-filters="sRGB"
       inkscape:collect="always"
       id="filter3546">
      <feGaussianBlur
         inkscape:collect="always"
         stdDeviation="0.15992437"
         id="feGaussianBlur3548" />
    </filter>
  </defs>
  <sodipodi:namedview
     id="base"
     pagecolor="#ffffff"
     bordercolor="#666666"
     borderopacity="1.0"
     inkscape:pageopacity="0.0"
     inkscape:pageshadow="2"
     inkscape:zoom="0.175"
     inkscape:cx="499.39792"
     inkscape:cy="1012.8536"
     inkscape:document-units="px"
     inkscape:current-layer="layer4"
     showgrid="false"
     inkscape:window-width="1440"
     inkscape:window-height="838"
     inkscape:window-x="-8"
     inkscape:window-y="-8"
     inkscape:window-maximized="1"
     fit-margin-top="0"
     fit-margin-left="0"
     fit-margin-right="0"
     fit-margin-bottom="0"
     height="744.09px"
     width="524.41px" />
  <metadata
     id="metadata7">
    <rdf:RDF>
      <cc:Work
         rdf:about="">
        <dc:format>image/svg+xml</dc:format>
        <dc:type
           rdf:resource="http://purl.org/dc/dcmitype/StillImage" />
        <dc:title />
      </cc:Work>
    </rdf:RDF>
  </metadata>
  <g
     inkscape:groupmode="layer"
     id="layer2"
     inkscape:label="borane"
     transform="translate(-668.76781,775.70851)">
    <path
       sodipodi:type="arc"
       style="fill:#1f7310;fill-opacity:1;fill-rule:evenodd;stroke:#009e00;stroke-width:16.04779053;stroke-linecap:butt;stroke-linejoin:miter;stroke-miterlimit:4;stroke-opacity:1;stroke-dasharray:none"
       id="path3020"
       sodipodi:cx="1077.1428"
       sodipodi:cy="424.28571"
       sodipodi:rx="665.71429"
       sodipodi:ry="258.57144"
       d="m 1742.8571,424.28571 c 0,142.80506 -298.0504,258.57144 -665.7143,258.57144 -367.66383,0 -665.71427,-115.76638 -665.71427,-258.57144 0,-142.80507 298.05044,-258.57145 665.71427,-258.57145 367.6639,0 665.7143,115.76638 665.7143,258.57145 z"
       transform="matrix(1.6598071,0,0,1.6847327,-0.70643626,-1041.475)" />
  </g>
  <g
     inkscape:groupmode="layer"
     id="layer8"
     inkscape:label="linuxmint"
     transform="translate(-514.28572,-394.29729)">
    <g
       transform="matrix(2.9969999,0,0,2.9969999,162.18638,-574.15939)"
       id="g3836">
      <path
         transform="matrix(1.0017677,0,0,1.0017677,-571.30503,297.78187)"
         inkscape:connector-curvature="0"
         sodipodi:nodetypes="cccccccccccccccc"
         d="m 931.26894,238.49999 c -21.29012,0 -39.76579,-16.13992 -39.76579,-37.41096 l -0.0191,-25.82763 0,-6.58603 -13.49775,0 0,-32.81595 56.92035,0.26806 17.80558,0.0383 c 21.30925,0 39.76578,16.12071 39.76578,37.41085 l 0,64.92335 -61.20904,0 0,0 0,0 z m 3.61855,-93.66112 -48.20903,15.16342 48.20903,-15.16342 z"
         style="opacity:0.4;fill:#000000;fill-opacity:1;fill-rule:evenodd;stroke:none;stroke-width:1;marker:none;visibility:visible;display:inline;overflow:visible;filter:url(#filter3965);enable-background:accumulate"
         id="path3984" />
      <path
         inkscape:connector-curvature="0"
         transform="matrix(1.0484996,0,0,1.0484996,261.56023,-0.40585)"
         d="m 96.077278,512.62497 c -20.30532,0 -37.92638,-15.39335 -37.92638,-35.68047 l -0.01824,-24.63294 0,-6.28139 -12.8734,0 0,-31.29801 54.28744,0.25566 16.981952,0.0365 c 20.32357,0 37.92637,15.37503 37.92637,35.68037 l 0,61.92024 -58.377742,0 0,0 0,0 z m 50.105842,-16.61009 c 0,-13.4892 0,-45.31015 0,-45.31015 0,-15.13759 -13.27509,-27.40847 -29.65447,-27.40847 l -17.000202,0 0,-0.0365 -45.97907,-0.20091 0,14.69945 c 0,0 3.75424,0 7.05806,0 4.9267,0 5.79705,3.40098 5.79705,8.10833 l 0.03654,31.05978 c 0,15.13759 13.27516,27.40846 29.63625,27.40846 l 40.395482,0 c 5.17873,0 9.71036,-3.27965 9.71036,-8.31996 z"
         style="fill:#000000;fill-opacity:0.15686275;fill-rule:evenodd;stroke:none;stroke-width:1;marker:none;visibility:visible;display:inline;overflow:visible;filter:url(#filter3558);enable-background:accumulate"
         id="path6156" />
      <path
         inkscape:connector-curvature="0"
         sodipodi:nodetypes="cccccccsccccc"
         id="path6158"
         d="m 415.80528,520.22372 c 0,-14.72024 0,-49.44521 0,-49.44521 0,-16.51906 -14.4866,-29.9098 -32.36077,-29.9098 l -18.55166,0 0,-0.0399 -50.17518,-0.21924 0,18.04093 c 0,0 4.09686,0 7.7022,0 5.37631,0 6.32609,3.71136 6.32609,8.84831 l 0.0399,31.89432 c 0,16.51907 14.48666,29.90979 32.34088,29.90979 l 44.08203,0 c 5.65135,0 10.59654,-3.57895 10.59654,-9.07924 z"
         style="fill:url(#linearGradient3846);fill-opacity:1;fill-rule:evenodd;display:inline" />
      <path
         inkscape:connector-curvature="0"
         transform="matrix(1.0484996,0,0,1.0484996,261.56023,-0.40585)"
         sodipodi:nodetypes="cccccsccccc"
         id="path6160"
         d="m 142.9375,500.53125 c -10.75182,-7.40935 -18.36682,-15.92034 -24.78125,-27.1875 -12.64444,-23.35809 -9.68791,-34.95326 -41,-37.6875 -9.036289,0 -15.051217,-2 -24.5625,-2 l 0,3.3125 c 10e-7,10e-6 3.758681,1.90749 7.0625,1.90749 4.926697,1e-5 5.78125,3.41765 5.78125,8.125 l 0.03125,29.15501 c -3e-6,15.13758 13.295158,27.40625 29.65625,27.40625 l 40.375,0 c 2.96358,0 5.62572,-1.16787 7.4375,-3.03125 z"
         style="opacity:0.17514122;fill:url(#linearGradient3848);fill-opacity:1;fill-rule:nonzero;display:inline;filter:url(#filter3291)" />
      <path
         inkscape:connector-curvature="0"
         transform="matrix(1.0484996,0,0,1.0484996,261.56023,-0.40585)"
         sodipodi:nodetypes="csccccsssccccsssccccccccccccccccsscc"
         id="path6162"
         d="m 105.51844,438.54009 c -3.83671,0 -7.245744,1.42445 -9.984837,4.1914 -2.737725,2.76548 -4.1752,6.21796 -4.17519,10.11421 l 0,19.69466 8.932957,0 0,-19.69466 c 0,-1.49338 0.48728,-2.66108 1.55355,-3.73818 1.06977,-1.08055 2.2026,-1.56971 3.67352,-1.56971 1.50175,0 2.61758,0.4867 3.68969,1.56971 1.06628,1.0771 1.55356,2.2448 1.55356,3.73818 l 0,19.69466 8.93297,0 0,-19.69466 c 0,-1.49338 0.48728,-2.66108 1.55356,-3.73818 1.07211,-1.08301 2.18794,-1.56971 3.68971,-1.56971 1.47093,0 2.60373,0.48916 3.6735,1.56971 1.06627,1.0771 1.55356,2.2448 1.55356,3.73818 l 0.0486,23.01222 c 0,4.90894 -4.67486,9.04618 -10.68071,9.04618 l -28.805549,-0.11326 c -4.634707,0 -8.593128,-4.51117 -8.593128,-10.30852 l 0,-43.33528 -8.447462,0 0,45.00209 c 0,4.77471 1.747181,8.96178 5.146164,12.3476 2.905193,2.8676 6.399074,4.56445 10.324689,4.98427 l 0,0.16191 32.074486,0 c 4.92872,0 9.25884,-1.83265 12.75212,-5.38904 l 0.0162,0 c 2.97102,-3.05245 4.70787,-6.70998 5.12997,-10.82624 l -0.0324,-24.58193 c 0,-3.89625 -1.43744,-7.34873 -4.17521,-10.11421 -2.73906,-2.76695 -6.14812,-4.1914 -9.98482,-4.1914 -3.76604,0 -7.06133,1.40042 -9.72593,3.96479 -2.65681,-2.56014 -5.92908,-3.96479 -9.69356,-3.96479 z"
         style="fill:#000000;fill-opacity:0.08040203;fill-rule:evenodd;stroke:none;stroke-width:4.7667098;marker:none;visibility:visible;display:inline;overflow:visible;filter:url(#filter3546);enable-background:accumulate" />
      <path
         inkscape:connector-curvature="0"
         id="path6164"
         d="m 371.4483,459.64912 c -4.02279,0 -7.59716,1.49353 -10.4691,4.39468 -2.87051,2.8996 -4.3777,6.51953 -4.37769,10.60474 l 0,20.64985 9.36621,0 0,-20.64985 c 0,-1.5658 0.51091,-2.79014 1.62889,-3.91948 1.12166,-1.13295 2.30943,-1.64584 3.85169,-1.64584 1.57458,0 2.74453,0.51031 3.86864,1.64584 1.11799,1.12934 1.62891,2.35368 1.62891,3.91948 l 0,20.64985 9.3662,0 0,-20.64985 c 0,-1.5658 0.51092,-2.79014 1.62892,-3.91948 1.1241,-1.13553 2.29405,-1.64584 3.86866,-1.64584 1.54227,0 2.73001,0.51289 3.85165,1.64584 1.11799,1.12934 1.62891,2.35368 1.62891,3.91948 l 0.0509,24.12831 c 0,5.14702 -4.90159,9.48491 -11.19872,9.48491 l -30.2026,-0.11875 c -4.85949,0 -9.00989,-4.72996 -9.00989,-10.80848 l 0,-45.43702 -8.85716,0 0,47.18467 c 0,5.00628 1.83192,9.39642 5.39575,12.94646 3.04609,3.00667 6.70943,4.95566 10.82542,5.39584 l 33.6301,-8e-5 c 5.16776,0 9.70788,-1.92153 13.37059,-5.6504 l 0.017,0 c 3.1151,-3.2005 4.9362,-7.03541 5.37877,-11.35131 l -0.0339,-25.77415 c 0,-4.08521 -1.50714,-7.70514 -4.37769,-10.60474 -2.87191,-2.90115 -6.44631,-4.39468 -10.46908,-4.39468 -3.94869,0 -7.4038,1.46834 -10.19764,4.15708 -2.78567,-2.68431 -6.21663,-4.15708 -10.16369,-4.15708 z"
         style="fill:#ffffff;fill-opacity:1;fill-rule:evenodd;stroke:none;stroke-width:1;marker:none;visibility:visible;display:inline;overflow:visible;enable-background:accumulate"
         sodipodi:nodetypes="csccccsssccccssscccccccccccccccsscc" />
      <path
         inkscape:connector-curvature="0"
         id="path6166"
         d="m 365.94034,508.1744 0,9.25 22,0 c 5.16774,0 9.68104,-1.92738 13.34374,-5.65625 l 0.0313,0 c 3.11511,-3.20051 4.93243,-7.02785 5.375,-11.34375 l 0,-5.25 -9.34375,0 0,3.59375 c 0,5.14705 -4.89038,9.46875 -11.18751,9.46875 l -20.21874,-0.0625 z"
         style="opacity:0.3;fill:#52a800;fill-opacity:1;fill-rule:evenodd;stroke:none;stroke-width:1;marker:none;visibility:visible;display:inline;overflow:visible;enable-background:accumulate" />
      <path
         inkscape:connector-curvature="0"
         sodipodi:nodetypes="ccccccccccccccccccccsccccc"
         d="m 360.83361,536.15009 c -21.29012,0 -39.76579,-16.13992 -39.76579,-37.41096 l -0.0191,-25.82763 0,-6.58603 -13.49775,0 0,-32.81595 56.92035,0.26806 17.80558,0.0383 c 21.30925,0 39.76578,16.12071 39.76578,37.41085 l 0,64.92335 -61.20904,0 0,0 0,0 z m 52.53596,-17.41567 c 0,-14.14342 0,-47.50768 0,-47.50768 0,-15.87175 -13.91893,-28.73777 -31.0927,-28.73777 l -17.82471,0 0,-0.0383 -48.20903,-0.21065 0,15.41237 c 0,0 1.93631,0 5.40037,0 3.6664,0 8.0782,3.44547 8.0782,8.50158 l 0.0383,32.56616 c 0,15.87176 13.919,28.73776 31.0736,28.73776 l 42.35465,0 c 5.42989,0 10.18131,-3.43871 10.18131,-8.72347 z"
         style="fill:#ffffff;fill-opacity:1;fill-rule:evenodd;stroke:none;stroke-width:1;marker:none;visibility:visible;display:inline;overflow:visible;enable-background:accumulate"
         id="path6168" />
    </g>
  </g>
  <g
     inkscape:groupmode="layer"
     id="layer4"
     inkscape:label="ubuntu"
     style="display:inline"
     transform="translate(-668.76781,1010.7085)">
    <g
       id="g3214"
       transform="matrix(1.0975369,0,0,1.0708036,847.3005,-695.33857)">
      <path
         id="path3206"
         d="m 283.465,141.734 c 0,78.273 -63.457,141.73 -141.734,141.73 C 63.454,283.464 0,220.008 0,141.734 0,63.455 63.453,0 141.73,0 220.007,0 283.465,63.455 283.465,141.734 z"
         inkscape:connector-curvature="0"
         style="fill:#dd4814" />
      <path
         id="path3208"
         d="m 45.356,122.812 c -10.453,0 -18.923,8.47 -18.923,18.923 0,10.449 8.47,18.92 18.923,18.92 10.449,0 18.92,-8.471 18.92,-18.92 0,-10.454 -8.47,-18.923 -18.92,-18.923 z m 135.107,86.002 c -9.051,5.225 -12.149,16.793 -6.926,25.84 5.226,9.051 16.793,12.151 25.844,6.926 9.048,-5.224 12.148,-16.792 6.923,-25.842 -5.224,-9.047 -16.793,-12.148 -25.841,-6.924 z M 86.458,141.732 c 0,-18.701 9.293,-35.219 23.504,-45.221 L 96.128,73.338 c -16.56,11.064 -28.878,27.978 -33.995,47.788 5.977,4.872 9.796,12.291 9.796,20.608 0,8.315 -3.819,15.734 -9.797,20.605 5.116,19.812 17.435,36.726 33.995,47.789 l 13.835,-23.175 c -14.211,-10 -23.504,-26.517 -23.504,-45.221 z m 55.275,-55.275 c 28.877,0 52.564,22.141 55.047,50.373 l 26.968,-0.394 c -1.327,-20.844 -10.432,-39.562 -24.425,-53.319 -7.194,2.718 -15.505,2.306 -22.688,-1.842 -7.192,-4.152 -11.705,-11.156 -12.941,-18.757 -6.992,-1.935 -14.351,-2.99 -21.96,-2.99 -13.086,0 -25.449,3.072 -36.431,8.512 l 13.146,23.56 c 7.077,-3.293 14.963,-5.143 23.284,-5.143 z m 0,110.551 c -8.322,0 -16.207,-1.85 -23.285,-5.143 L 105.3,215.427 c 10.983,5.438 23.347,8.511 36.433,8.511 7.609,0 14.968,-1.055 21.961,-2.99 1.236,-7.601 5.75,-14.605 12.943,-18.76 7.183,-4.146 15.494,-4.558 22.688,-1.839 13.992,-13.758 23.097,-32.476 24.422,-53.32 l -26.968,-0.394 c -2.481,28.236 -26.169,50.373 -55.046,50.373 z M 180.46,74.649 c 9.05,5.227 20.619,2.126 25.842,-6.921 5.226,-9.051 2.128,-20.619 -6.923,-25.845 -9.049,-5.224 -20.617,-2.124 -25.843,6.927 -5.224,9.047 -2.124,20.616 6.924,25.839 z"
         inkscape:connector-curvature="0"
         style="fill:#ffffff" />
    </g>
  </g>
  <g
     inkscape:groupmode="layer"
     id="layer3"
     inkscape:label="fedora"
     style="display:inline"
     transform="translate(-668.76781,1010.7085)">
    <g
       id="g3181"
       transform="matrix(1.0975369,0,0,1.0708036,1673.4789,-680.80943)">
      <path
         style="fill:#294172"
         id="voice"
         d="m 266.62575,133.50613 c 0,-73.52485 -59.60353,-133.1303 -133.12783,-133.1303 -73.49124,0 -133.07153,59.5554 -133.12367,133.03642 l 0,103.02105 c 0.03955,16.68433 13.5712,30.19087 30.26602,30.19087 l 102.91165,0 c 73.49975,-0.0288 133.07383,-59.61275 133.07383,-133.11804"
         inkscape:connector-curvature="0" />
      <path
         style="fill:none;stroke:#3c6eb4;stroke-width:29.20999908"
         id="in"
         d="m 77.126289,142.09756 c 0,0 47.844751,0 47.844751,0 0,0 0,47.84478 0,47.84478 0,26.41029 -21.43445,47.84473 -47.844751,47.84473 -26.41031,0 -47.844759,-21.43444 -47.844759,-47.84473 0,-26.41031 21.434449,-47.84478 47.844759,-47.84478 z"
         inkscape:connector-curvature="0" />
      <use
         xlink:href="#in"
         id="finity"
         transform="matrix(-1,0,0,-1,249.71151,284.2882)"
         x="0"
         y="0"
         width="1"
         height="1" />
      <path
         style="fill:#ffffff"
         id="free"
         d="m 139.6074,127.52923 0,62.34618 c 0,34.50402 -27.97537,62.48 -62.48061,62.48 -5.23494,0 -8.95649,-0.59101 -13.80235,-1.8577 -7.06595,-1.84912 -12.84046,-7.64253 -12.84286,-14.38111 0,-8.14513 5.91236,-14.0699 14.75029,-14.0699 4.20637,0 5.73267,0.80765 11.89492,0.80765 18.19161,0 32.94764,-14.73519 32.97955,-32.92679 l 0,-28.65657 c 0,-2.56775 -2.08663,-4.64825 -4.65867,-4.64825 l -21.66521,-0.004 c -8.07212,0 -14.59401,-6.43843 -14.59401,-14.53266 -0.0043,-8.14456 6.5888,-14.55657 14.74808,-14.55657"
         inkscape:connector-curvature="0" />
      <use
         xlink:href="#free"
         id="dom"
         transform="matrix(-1,0,0,-1,249.71152,284.28821)"
         x="0"
         y="0"
         width="1"
         height="1" />
      <path
         style="fill:#3c6eb4"
         id="TM"
         d="m 243.65456,243.58425 c 0,0 4e-5,-5.53139 4e-5,-5.53139 l -2.52853,5.79776 c 0,0 -2.46141,-5.79776 -2.46141,-5.79776 l 4.7e-4,5.53139 -1.4183,0 0,-8.73492 1.48704,0 c 0,0 2.43397,5.58051 2.43397,5.58051 l 2.39711,-5.58051 1.50544,0 0,8.73492 -1.41583,0 z m -10.33302,-7.27184 0,7.27184 -1.48213,0 0,-7.27184 -2.48488,0 0,-1.46308 6.44946,0 0,1.46308"
         inkscape:connector-curvature="0" />
    </g>
  </g>
  <g
     inkscape:groupmode="layer"
     id="layer5"
     inkscape:label="debian"
     style="display:inline"
     transform="translate(-668.76781,1010.7085)">
    <g
       style="overflow:visible"
       id="g3289"
       transform="matrix(3.1072658,0,0,3.0315803,1772.9577,-654.56741)">
      <g
         i:rgbTrio="#4F008000FFFF"
         i:dimmedPercent="50"
         i:layer="yes"
         id="Layer_1"
         transform="translate(81.079983,-11.014042)">
        <g
           id="g3259">
          <path
             id="path3261"
             d="m 51.986,57.297 c -1.797,0.025 0.34,0.926 2.686,1.287 0.648,-0.506 1.236,-1.018 1.76,-1.516 -1.461,0.358 -2.948,0.366 -4.446,0.229"
             i:knockout="Off"
             inkscape:connector-curvature="0"
             style="fill:#a80030" />
          <path
             id="path3263"
             d="m 61.631,54.893 c 1.07,-1.477 1.85,-3.094 2.125,-4.766 -0.24,1.192 -0.887,2.221 -1.496,3.307 -3.359,2.115 -0.316,-1.256 -0.002,-2.537 -3.612,4.546 -0.496,2.726 -0.627,3.996"
             i:knockout="Off"
             inkscape:connector-curvature="0"
             style="fill:#a80030" />
          <path
             id="path3265"
             d="m 65.191,45.629 c 0.217,-3.236 -0.637,-2.213 -0.924,-0.978 0.335,0.174 0.6,2.281 0.924,0.978"
             i:knockout="Off"
             inkscape:connector-curvature="0"
             style="fill:#a80030" />
          <path
             id="path3267"
             d="m 45.172,1.399 c 0.959,0.172 2.072,0.304 1.916,0.533 1.049,-0.23 1.287,-0.442 -1.916,-0.533"
             i:knockout="Off"
             inkscape:connector-curvature="0"
             style="fill:#a80030" />
          <path
             id="path3269"
             d="M 47.088,1.932 46.41,2.072 47.041,2.016 47.088,1.932"
             i:knockout="Off"
             inkscape:connector-curvature="0"
             style="fill:#a80030" />
          <path
             id="path3271"
             d="m 76.992,46.856 c 0.107,2.906 -0.85,4.316 -1.713,6.812 l -1.553,0.776 c -1.271,2.468 0.123,1.567 -0.787,3.53 -1.984,1.764 -6.021,5.52 -7.313,5.863 -0.943,-0.021 0.639,-1.113 0.846,-1.541 -2.656,1.824 -2.131,2.738 -6.193,3.846 L 60.16,65.878 C 50.142,70.591 36.226,61.251 36.409,48.507 c -0.107,0.809 -0.304,0.607 -0.526,0.934 -0.517,-6.557 3.028,-13.143 9.007,-15.832 5.848,-2.895 12.704,-1.707 16.893,2.197 -2.301,-3.014 -6.881,-6.209 -12.309,-5.91 -5.317,0.084 -10.291,3.463 -11.951,7.131 -2.724,1.715 -3.04,6.611 -4.227,7.507 -1.597,11.737 3.004,16.808 10.787,22.773 1.225,0.826 0.345,0.951 0.511,1.58 -2.586,-1.211 -4.954,-3.039 -6.901,-5.277 1.033,1.512 2.148,2.982 3.589,4.137 -2.438,-0.826 -5.695,-5.908 -6.646,-6.115 4.203,7.525 17.052,13.197 23.78,10.383 -3.113,0.115 -7.068,0.064 -10.566,-1.229 -1.469,-0.756 -3.467,-2.322 -3.11,-2.615 9.182,3.43 18.667,2.598 26.612,-3.771 2.021,-1.574 4.229,-4.252 4.867,-4.289 -0.961,1.445 0.164,0.695 -0.574,1.971 2.014,-3.248 -0.875,-1.322 2.082,-5.609 l 1.092,1.504 c -0.406,-2.696 3.348,-5.97 2.967,-10.234 0.861,-1.304 0.961,1.403 0.047,4.403 1.268,-3.328 0.334,-3.863 0.66,-6.609 0.352,0.923 0.814,1.904 1.051,2.878 -0.826,-3.216 0.848,-5.416 1.262,-7.285 -0.408,-0.181 -1.275,1.422 -1.473,-2.377 0.029,-1.65 0.459,-0.865 0.625,-1.271 -0.324,-0.186 -1.174,-1.451 -1.691,-3.877 0.375,-0.57 1.002,1.478 1.512,1.562 -0.328,-1.929 -0.893,-3.4 -0.916,-4.88 -1.49,-3.114 -0.527,0.415 -1.736,-1.337 -1.586,-4.947 1.316,-1.148 1.512,-3.396 2.404,3.483 3.775,8.881 4.404,11.117 -0.48,-2.726 -1.256,-5.367 -2.203,-7.922 0.73,0.307 -1.176,-5.609 0.949,-1.691 C 83.519,18.706 76.074,10.902 69.225,7.24 70.063,8.007 71.121,8.97 70.741,9.121 67.335,7.093 67.934,6.935 67.446,6.078 64.671,4.949 64.489,6.169 62.651,6.08 57.421,3.306 56.413,3.601 51.6,1.863 l 0.219,1.023 c -3.465,-1.154 -4.037,0.438 -7.782,0.004 -0.228,-0.178 1.2,-0.644 2.375,-0.815 -3.35,0.442 -3.193,-0.66 -6.471,0.122 0.808,-0.567 1.662,-0.942 2.524,-1.424 -2.732,0.166 -6.522,1.59 -5.352,0.295 -4.456,1.988 -12.37,4.779 -16.811,8.943 l -0.14,-0.933 c -2.035,2.443 -8.874,7.296 -9.419,10.46 l -0.544,0.127 c -1.059,1.793 -1.744,3.825 -2.584,5.67 -1.385,2.36 -2.03,0.908 -1.833,1.278 -2.724,5.523 -4.077,10.164 -5.246,13.97 0.833,1.245 0.02,7.495 0.335,12.497 -1.368,24.704 17.338,48.69 37.785,54.228 2.997,1.072 7.454,1.031 11.245,1.141 -4.473,-1.279 -5.051,-0.678 -9.408,-2.197 -3.143,-1.48 -3.832,-3.17 -6.058,-5.102 l 0.881,1.557 c -4.366,-1.545 -2.539,-1.912 -6.091,-3.037 l 0.941,-1.229 C 28.751,98.334 26.418,96.056 25.78,94.795 l -1.548,0.061 c -1.86,-2.295 -2.851,-3.949 -2.779,-5.23 l -0.5,0.891 c -0.567,-0.973 -6.843,-8.607 -3.587,-6.83 -0.605,-0.553 -1.409,-0.9 -2.281,-2.484 l 0.663,-0.758 c -1.567,-2.016 -2.884,-4.6 -2.784,-5.461 0.836,1.129 1.416,1.34 1.99,1.533 -3.957,-9.818 -4.179,-0.541 -7.176,-9.994 L 8.412,66.472 C 7.926,65.74 7.631,64.945 7.24,64.165 l 0.276,-2.75 C 4.667,58.121 6.719,47.409 7.13,41.534 7.415,39.145 9.508,36.602 11.1,32.614 l -0.97,-0.167 c 1.854,-3.234 10.586,-12.988 14.63,-12.486 1.959,-2.461 -0.389,-0.009 -0.772,-0.629 4.303,-4.453 5.656,-3.146 8.56,-3.947 3.132,-1.859 -2.688,0.725 -1.203,-0.709 5.414,-1.383 3.837,-3.144 10.9,-3.846 0.745,0.424 -1.729,0.655 -2.35,1.205 4.511,-2.207 14.275,-1.705 20.617,1.225 7.359,3.439 15.627,13.605 15.953,23.17 l 0.371,0.1 c -0.188,3.802 0.582,8.199 -0.752,12.238 l 0.908,-1.912"
             i:knockout="Off"
             inkscape:connector-curvature="0"
             style="fill:#a80030" />
          <path
             id="path3273"
             d="m 32.372,59.764 -0.252,1.26 c 1.181,1.604 2.118,3.342 3.626,4.596 -1.085,-2.118 -1.891,-2.993 -3.374,-5.856"
             i:knockout="Off"
             inkscape:connector-curvature="0"
             style="fill:#a80030" />
          <path
             id="path3275"
             d="m 35.164,59.654 c -0.625,-0.691 -0.995,-1.523 -1.409,-2.352 0.396,1.457 1.207,2.709 1.962,3.982 l -0.553,-1.63"
             i:knockout="Off"
             inkscape:connector-curvature="0"
             style="fill:#a80030" />
          <path
             id="path3277"
             d="m 84.568,48.916 -0.264,0.662 c -0.484,3.438 -1.529,6.84 -3.131,9.994 1.77,-3.328 2.915,-6.968 3.395,-10.656"
             i:knockout="Off"
             inkscape:connector-curvature="0"
             style="fill:#a80030" />
          <path
             id="path3279"
             d="M 45.527,0.537 C 46.742,0.092 48.514,0.293 49.803,0 48.123,0.141 46.451,0.225 44.8,0.438 l 0.727,0.099"
             i:knockout="Off"
             inkscape:connector-curvature="0"
             style="fill:#a80030" />
          <path
             id="path3281"
             d="m 2.872,23.219 c 0.28,2.592 -1.95,3.598 0.494,1.889 1.31,-2.951 -0.512,-0.815 -0.494,-1.889"
             i:knockout="Off"
             inkscape:connector-curvature="0"
             style="fill:#a80030" />
          <path
             id="path3283"
             d="M 0,35.215 C 0.563,33.487 0.665,32.449 0.88,31.449 -0.676,33.438 0.164,33.862 0,35.215"
             i:knockout="Off"
             inkscape:connector-curvature="0"
             style="fill:#a80030" />
        </g>
      </g>
    </g>
  </g>
  <g
     inkscape:groupmode="layer"
     id="layer6"
     inkscape:label="archlinux"
     style="display:inline"
     transform="translate(-668.76781,1010.7085)">
    <g
       id="layer1"
       transform="matrix(1.8582488,0,0,1.8582488,1397.6323,-872.78787)">
      <g
         id="g2424"
         transform="matrix(0.95994484,0,0,0.93656291,457.9056,-32.777972)">
        <g
           style="fill:#4d4d4d;fill-opacity:1"
           id="g2809"
           transform="matrix(0.6378586,0,0,0.6378586,36.486487,2.17139)" />
        <g
           style="fill:#1793d1;fill-opacity:1;stroke:none"
           id="g5326"
           transform="matrix(0.9443373,0,0.01336345,0.9443373,78.345657,-412.48879)" />
        <path
           style="fill:#1793d1;fill-opacity:1;fill-rule:evenodd;stroke:none"
           id="path2518"
           transform="matrix(1.1433333,0,0,1.1433333,22.920168,121.64318)"
           d="m 105.8125,16.625 c -7.39687,18.135158 -11.858304,29.997682 -20.09375,47.59375 5.04936,5.35232 11.247211,11.585364 21.3125,18.625 C 96.210077,78.390904 88.828713,73.920352 83.3125,69.28125 72.7727,91.274163 56.259864,122.60209 22.75,182.8125 49.087628,167.60733 69.504089,158.23318 88.53125,154.65625 87.714216,151.1422 87.2497,147.34107 87.28125,143.375 l 0.03125,-0.84375 c 0.417917,-16.87382 9.195665,-29.84979 19.59375,-28.96875 10.39809,0.88104 18.48041,15.28242 18.0625,32.15625 -0.0786,3.17512 -0.43674,6.22955 -1.0625,9.0625 18.82058,3.68164 39.01873,13.03179 65,28.03125 -5.123,-9.4318 -9.69572,-17.93388 -14.0625,-26.03125 -6.87839,-5.33121 -14.05289,-12.2698 -28.6875,-19.78125 10.05899,2.61375 17.2611,5.62932 22.875,9 C 124.63297,63.338161 121.03766,52.354109 105.8125,16.625 z"
           inkscape:connector-curvature="0" />
        <g
           style="font-size:8.44138241px;font-style:normal;font-weight:normal;fill:#1793d1;fill-opacity:1;stroke:none;font-family:DejaVu Sans Mono"
           id="text2634" />
        <g
           style="font-size:8.25130367px;font-style:normal;font-weight:normal;fill:#1793d1;fill-opacity:1;stroke:none;font-family:DejaVu Sans Mono"
           id="text2638">
          <path
             style="fill:#1793d1;fill-opacity:1"
             id="path3940"
             d="m 239.84053,313.69965 0,-5.20945 -1.94598,0 0,-0.697 4.68164,0 0,0.697 -1.95404,0 0,5.20945 -0.78162,0"
             inkscape:connector-curvature="0" />
          <path
             style="fill:#1793d1;fill-opacity:1"
             id="path3942"
             d="m 243.39004,313.69965 0,-5.90645 1.17646,0 1.39805,4.18205 c 0.12892,0.38947 0.22293,0.6809 0.28202,0.87429 0.0671,-0.21488 0.1719,-0.53048 0.31426,-0.94681 l 1.41417,-4.10953 1.05155,0 0,5.90645 -0.75341,0 0,-4.94353 -1.71634,4.94353 -0.70506,0 -1.70828,-5.02814 0,5.02814 -0.75342,0"
             inkscape:connector-curvature="0" />
        </g>
      </g>
    </g>
  </g>
  <g
     inkscape:groupmode="layer"
     id="layer7"
     inkscape:label="title"
     transform="translate(-514.28572,805.70271)">
    <g
       style="font-size:40px;font-style:normal;font-weight:normal;line-height:125%;letter-spacing:0px;word-spacing:0px;fill:#000000;fill-opacity:1;stroke:none;font-family:Sans"
       id="text3024"
       transform="translate(657.14287,-802.85714)">
      <path
         d="m 610.12109,225.96213 0,16.895 -67.89,0 0,-107.415 19.53,0 0,90.52 48.36,0"
         style="font-size:155px;font-variant:normal;font-weight:500;font-stretch:normal;text-align:center;text-anchor:middle;font-family:Ubuntu;-inkscape-font-specification:Ubuntu Medium"
         id="path3094"
         inkscape:connector-curvature="0" />
      <path
         d="m 642.85757,242.85713 -18.755,0 0,-81.065 18.755,0 0,81.065 m 2.015,-104.78 c -3e-5,3.51344 -1.1367,6.30343 -3.41,8.37 -2.27336,2.06676 -4.96002,3.1001 -8.06,3.1 -3.20335,1e-4 -5.94168,-1.03324 -8.215,-3.1 -2.27334,-2.06657 -3.41001,-4.85656 -3.41,-8.37 -10e-6,-3.61656 1.13666,-6.45822 3.41,-8.525 2.27332,-2.06655 5.01165,-3.09988 8.215,-3.1 3.09998,1.2e-4 5.78664,1.03345 8.06,3.1 2.2733,2.06678 3.40997,4.90844 3.41,8.525"
         style="font-size:155px;font-variant:normal;font-weight:500;font-stretch:normal;text-align:center;text-anchor:middle;font-family:Ubuntu;-inkscape-font-specification:Ubuntu Medium"
         id="path3096"
         inkscape:connector-curvature="0" />
      <path
         d="m 666.63312,164.42713 c 3.61665,-1.03325 8.31831,-2.01492 14.105,-2.945 5.78663,-0.92992 12.1933,-1.39492 19.22,-1.395 6.61328,8e-5 12.14161,0.93008 16.585,2.79 4.44327,1.75675 7.9566,4.28841 10.54,7.595 2.68659,3.2034 4.54659,7.13007 5.58,11.78 1.13659,4.54672 1.70492,9.55839 1.705,15.035 l 0,45.57 -18.755,0 0,-42.625 c -6e-5,-4.33995 -0.31006,-8.00828 -0.93,-11.005 -0.51673,-3.09994 -1.44673,-5.57994 -2.79,-7.44 -1.24006,-1.96327 -2.99672,-3.35827 -5.27,-4.185 -2.17005,-0.92993 -4.85671,-1.39493 -8.06,-1.395 -2.37671,7e-5 -4.85671,0.15507 -7.44,0.465 -2.58337,0.31007 -4.49503,0.5684 -5.735,0.775 l 0,65.41 -18.755,0 0,-78.43"
         style="font-size:155px;font-variant:normal;font-weight:500;font-stretch:normal;text-align:center;text-anchor:middle;font-family:Ubuntu;-inkscape-font-specification:Ubuntu Medium"
         id="path3098"
         inkscape:connector-curvature="0" />
      <path
         d="m 823.94843,240.37713 c -3.61674,0.93 -8.3184,1.86 -14.105,2.79 -5.78672,1.03333 -12.14172,1.55 -19.065,1.55 -6.51004,0 -11.9867,-0.93 -16.43,-2.79 -4.34002,-1.86 -7.85335,-4.44333 -10.54,-7.75 -2.58335,-3.30665 -4.44334,-7.23332 -5.58,-11.78 -1.13668,-4.64997 -1.70501,-9.7133 -1.705,-15.19 l 0,-45.415 18.755,0 0,42.47 c -3e-5,8.68003 1.23997,14.88003 3.72,18.6 2.5833,3.72002 7.02663,5.58002 13.33,5.58 2.27329,2e-5 4.64995,-0.10332 7.13,-0.31 2.58328,-0.20665 4.49494,-0.46498 5.735,-0.775 l 0,-65.565 18.755,0 0,78.585"
         style="font-size:155px;font-variant:normal;font-weight:500;font-stretch:normal;text-align:center;text-anchor:middle;font-family:Ubuntu;-inkscape-font-specification:Ubuntu Medium"
         id="path3100"
         inkscape:connector-curvature="0" />
      <path
         d="m 877.11101,188.29713 17.205,-26.505 19.685,0 -26.66,38.285 c 5.57994,7.23337 10.90161,14.57003 15.965,22.01 5.16659,7.33668 9.40326,14.26001 12.71,20.77 l -20.305,0 c -0.93006,-1.96333 -2.17006,-4.18499 -3.72,-6.665 -1.44672,-2.58332 -3.04839,-5.21832 -4.805,-7.905 -1.65338,-2.78998 -3.41005,-5.52831 -5.27,-8.215 -1.86004,-2.68664 -3.66837,-5.2183 -5.425,-7.595 -3.6167,4.65003 -7.1817,9.81669 -10.695,15.5 -3.41003,5.58001 -6.25169,10.54001 -8.525,14.88 l -19.22,0 c 1.55,-3.09999 3.41,-6.40666 5.58,-9.92 2.16999,-3.51332 4.49499,-7.07831 6.975,-10.695 2.47998,-3.71997 5.01165,-7.3883 7.595,-11.005 2.68664,-3.71996 5.32164,-7.23329 7.905,-10.54 l -26.815,-38.905 20.615,0 17.205,26.505"
         style="font-size:155px;font-variant:normal;font-weight:500;font-stretch:normal;text-align:center;text-anchor:middle;font-family:Ubuntu;-inkscape-font-specification:Ubuntu Medium"
         id="path3102"
         inkscape:connector-curvature="0" />
      <path
         d="m 986.49742,226.73713 c 1.13663,0.10335 2.63496,0.20668 4.495,0.31 1.85996,2e-5 4.39162,2e-5 7.595,0 13.12328,2e-5 22.88828,-3.30665 29.29498,-9.92 6.5099,-6.71663 9.7649,-16.06829 9.765,-28.055 -10e-5,-12.19327 -3.1517,-21.54492 -9.455,-28.055 -6.3034,-6.50991 -16.0684,-9.76491 -29.29498,-9.765 -5.78671,9e-5 -9.92004,0.15509 -12.4,0.465 l 0,75.02 m 71.60998,-37.665 c -1e-4,9.30005 -1.4468,17.4117 -4.34,24.335 -2.8934,6.82002 -7.0267,12.55502 -12.4,17.205 -5.2701,4.54668 -11.6767,7.95667 -19.22,10.23 -7.44,2.17 -15.7067,3.255 -24.79998,3.255 -4.34004,0 -9.24837,-0.20667 -14.725,-0.62 -5.47669,-0.31 -10.69502,-1.03333 -15.655,-2.17 l 0,-104.315 c 4.95998,-1.13656 10.22997,-1.85989 15.81,-2.17 5.57996,-0.30989 10.53996,-0.46489 14.88,-0.465 8.98998,1.1e-4 17.20498,1.08511 24.64498,3.255 7.4399,2.06677 13.7949,5.37344 19.065,9.92 5.3733,4.44343 9.5066,10.12675 12.4,17.05 2.8932,6.82007 4.3399,14.9834 4.34,24.49"
         style="font-size:155px;font-variant:normal;font-weight:500;font-stretch:normal;text-align:center;text-anchor:middle;font-family:Ubuntu;-inkscape-font-specification:Ubuntu Medium"
         id="path3104"
         inkscape:connector-curvature="0" />
      <path
         d="m 1097.5646,242.85713 -18.755,0 0,-81.065 18.755,0 0,81.065 m 2.015,-104.78 c 0,3.51344 -1.1367,6.30343 -3.41,8.37 -2.2734,2.06676 -4.96,3.1001 -8.06,3.1 -3.2033,1e-4 -5.9417,-1.03324 -8.215,-3.1 -2.2733,-2.06657 -3.41,-4.85656 -3.41,-8.37 0,-3.61656 1.1367,-6.45822 3.41,-8.525 2.2733,-2.06655 5.0117,-3.09988 8.215,-3.1 3.1,1.2e-4 5.7866,1.03345 8.06,3.1 2.2733,2.06678 3.41,4.90844 3.41,8.525"
         style="font-size:155px;font-variant:normal;font-weight:500;font-stretch:normal;text-align:center;text-anchor:middle;font-family:Ubuntu;-inkscape-font-specification:Ubuntu Medium"
         id="path3106"
         inkscape:connector-curvature="0" />
      <path
         d="m 1141.6452,229.37213 c 4.9599,2e-5 8.5766,-0.56832 10.85,-1.705 2.2732,-1.23998 3.4099,-3.30665 3.41,-6.2 -10e-5,-2.68664 -1.2401,-4.90831 -3.72,-6.665 -2.3768,-1.75663 -6.3551,-3.6683 -11.935,-5.735 -3.4101,-1.23996 -6.5617,-2.53163 -9.455,-3.875 -2.7901,-1.44663 -5.2184,-3.09996 -7.285,-4.96 -2.0667,-1.85995 -3.7201,-4.08162 -4.96,-6.665 -1.1367,-2.68661 -1.7051,-5.94161 -1.705,-9.765 -10e-5,-7.43993 2.7383,-13.27826 8.215,-17.515 5.4766,-4.33992 12.9166,-6.50991 22.32,-6.51 4.7532,9e-5 9.2999,0.46508 13.64,1.395 4.3399,0.82675 7.5949,1.65342 9.765,2.48 l -3.41,15.19 c -2.0668,-0.92993 -4.7018,-1.7566 -7.905,-2.48 -3.2034,-0.8266 -6.9234,-1.23993 -11.16,-1.24 -3.8234,7e-5 -6.9234,0.67174 -9.3,2.015 -2.3767,1.24007 -3.5651,3.2034 -3.565,5.89 -1e-4,1.34339 0.2066,2.53173 0.62,3.565 0.5166,1.03339 1.3433,2.01506 2.48,2.945 1.1366,0.82672 2.6349,1.70505 4.495,2.635 1.8599,0.82672 4.1332,1.70505 6.82,2.635 4.4432,1.65338 8.2149,3.30671 11.315,4.96 3.0999,1.55004 5.6316,3.35838 7.595,5.425 2.0666,1.96337 3.5649,4.2367 4.495,6.82 0.9299,2.58336 1.3949,5.68336 1.395,9.3 -10e-5,7.75002 -2.8934,13.64001 -8.68,17.67 -5.6834,3.92667 -13.8468,5.89 -24.49,5.89 -7.1301,0 -12.8651,-0.62 -17.205,-1.86 -4.3401,-1.13666 -7.3884,-2.06666 -9.145,-2.79 l 3.255,-15.655 c 2.7899,1.13669 6.0966,2.22168 9.92,3.255 3.9266,1.03335 8.3699,1.55002 13.33,1.55"
         style="font-size:155px;font-variant:normal;font-weight:500;font-stretch:normal;text-align:center;text-anchor:middle;font-family:Ubuntu;-inkscape-font-specification:Ubuntu Medium"
         id="path3108"
         inkscape:connector-curvature="0" />
      <path
         d="m 1191.25,140.40213 18.755,-3.1 0,24.49 28.83,0 0,15.655 -28.83,0 0,33.015 c 0,6.51003 1.0333,11.16002 3.1,13.95 2.0666,2.79002 5.58,4.18502 10.54,4.185 3.4099,2e-5 6.4066,-0.36165 8.99,-1.085 2.6866,-0.72332 4.8049,-1.39498 6.355,-2.015 l 3.1,14.88 c -2.1701,0.93 -5.0117,1.86 -8.525,2.79 -3.5134,1.03333 -7.6467,1.55 -12.4,1.55 -5.7867,0 -10.6434,-0.775 -14.57,-2.325 -3.8234,-1.55 -6.8717,-3.77166 -9.145,-6.665 -2.2734,-2.99665 -3.875,-6.56165 -4.805,-10.695 -0.93,-4.23664 -1.395,-9.04164 -1.395,-14.415 l 0,-70.215"
         style="font-size:155px;font-variant:normal;font-weight:500;font-stretch:normal;text-align:center;text-anchor:middle;font-family:Ubuntu;-inkscape-font-specification:Ubuntu Medium"
         id="path3110"
         inkscape:connector-curvature="0" />
      <path
         d="m 1303.1552,178.68713 c -1.5501,-0.5166 -3.7201,-1.03327 -6.51,-1.55 -2.6868,-0.61993 -5.8384,-0.92993 -9.455,-0.93 -2.0668,7e-5 -4.2884,0.20674 -6.665,0.62 -2.2734,0.4134 -3.8751,0.77507 -4.805,1.085 l 0,64.945 -18.755,0 0,-77.19 c 3.6166,-1.34325 8.1116,-2.58325 13.485,-3.72 5.4766,-1.23992 11.5216,-1.85992 18.135,-1.86 1.2399,8e-5 2.6866,0.10342 4.34,0.31 1.6532,0.10342 3.3066,0.31008 4.96,0.62 1.6532,0.20675 3.2549,0.51675 4.805,0.93 1.5499,0.31008 2.7899,0.62008 3.72,0.93 l -3.255,15.81"
         style="font-size:155px;font-variant:normal;font-weight:500;font-stretch:normal;text-align:center;text-anchor:middle;font-family:Ubuntu;-inkscape-font-specification:Ubuntu Medium"
         id="path3112"
         inkscape:connector-curvature="0" />
      <path
         d="m 1392.6434,202.24713 c -10e-5,6.4067 -0.9301,12.24503 -2.79,17.515 -1.86,5.27002 -4.495,9.76502 -7.905,13.485 -3.41,3.72001 -7.5434,6.61334 -12.4,8.68 -4.7534,2.06667 -10.0234,3.1 -15.81,3.1 -5.7867,0 -11.0567,-1.03333 -15.81,-3.1 -4.7533,-2.06666 -8.835,-4.95999 -12.245,-8.68 -3.41,-3.71998 -6.0966,-8.21498 -8.06,-13.485 -1.86,-5.26997 -2.79,-11.1083 -2.79,-17.515 0,-6.40662 0.93,-12.19328 2.79,-17.36 1.9634,-5.26993 4.65,-9.76493 8.06,-13.485 3.5133,-3.71992 7.6467,-6.56159 12.4,-8.525 4.7533,-2.06658 9.9717,-3.09991 15.655,-3.1 5.6833,9e-5 10.9016,1.03342 15.655,3.1 4.8566,1.96341 8.99,4.80508 12.4,8.525 3.41,3.72007 6.045,8.21507 7.905,13.485 1.9633,5.16672 2.9449,10.95338 2.945,17.36 m -19.22,0 c 0,-8.05995 -1.7567,-14.41494 -5.27,-19.065 -3.41,-4.75327 -8.215,-7.12993 -14.415,-7.13 -6.2,7e-5 -11.0567,2.37673 -14.57,7.13 -3.41,4.65006 -5.115,11.00505 -5.115,19.065 0,8.16337 1.705,14.62169 5.115,19.375 3.5133,4.75335 8.37,7.13002 14.57,7.13 6.2,2e-5 11.005,-2.37665 14.415,-7.13 3.5133,-4.75331 5.27,-11.21163 5.27,-19.375"
         style="font-size:155px;font-variant:normal;font-weight:500;font-stretch:normal;text-align:center;text-anchor:middle;font-family:Ubuntu;-inkscape-font-specification:Ubuntu Medium"
         id="path3114"
         inkscape:connector-curvature="0" />
    </g>
  </g>
</svg>
